<?xml version="1.0" encoding="UTF-8" standalone="no"?><!DOCTYPE svg PUBLIC "-//W3C//DTD SVG 1.1//EN" "http://www.w3.org/Graphics/SVG/1.1/DTD/svg11.dtd"><svg xmlns="http://www.w3.org/2000/svg" version="1.1" viewBox="-0.00 -0.00 196.00 196.00" width="128" height="128"><path stroke="#8e871b" stroke-width="2.00" fill="none" stroke-linecap="butt" vector-effect="non-scaling-stroke" d=" M 90.41 103.81 A 0.67 0.67 0.0 0 1 89.50 103.83 C 86.59 101.23 81.54 95.08 76.60 91.40 C 55.93 76.01 40.22 112.01 34.83 125.65 C 32.89 130.56 31.50 133.72 35.12 137.66 Q 59.77 164.52 95.46 166.81 Q 105.84 167.48 118.54 166.14 C 140.35 163.83 163.14 155.86 174.97 136.05 A 5.03 4.99 68.4 0 0 175.49 134.84 Q 176.22 132.14 175.72 127.50 C 172.35 95.93 159.67 56.03 132.10 37.43 Q 121.24 30.11 109.96 28.64 C 82.66 25.10 58.03 37.41 41.71 59.01 Q 27.90 77.30 19.84 101.30 Q 18.95 103.94 19.03 105.29 C 19.39 111.55 26.96 114.55 31.40 110.06 Q 32.82 108.63 34.28 104.36 Q 39.63 88.73 48.65 74.67 C 61.15 55.19 79.07 42.40 102.85 42.89 C 120.09 43.24 133.37 55.33 141.89 69.14 C 152.95 87.05 159.00 108.11 161.15 129.07 A 3.33 3.31 60.1 0 1 160.55 131.32 C 153.06 141.76 139.53 147.33 127.02 149.81 C 111.75 152.83 93.52 153.54 78.85 148.92 Q 62.06 143.63 49.15 130.90 A 0.91 0.89 -57.2 0 1 48.95 129.94 C 52.60 120.73 57.67 110.04 64.89 103.23 A 1.95 1.94 34.9 0 1 67.00 102.86 Q 68.21 103.38 69.71 104.79 Q 70.09 105.16 79.59 114.71 C 84.26 119.41 91.55 121.63 97.22 117.46 Q 100.80 114.82 103.46 111.20 Q 111.17 100.69 118.20 85.81 C 120.22 81.55 121.65 79.39 119.76 75.57 C 117.28 70.58 111.11 70.41 107.43 74.52 A 3.33 3.23 78.8 0 0 106.88 75.37 Q 100.31 90.14 91.84 102.31 Q 91.57 102.69 90.41 103.81"
/><path fill="#ffe000" d=" M 16.63 126.93 Q 3.19 120.01 2.28 104.71 A 6.20 6.14 48.8 0 1 2.36 103.40 Q 3.53 96.98 6.39 89.39 C 15.20 65.97 29.59 42.27 49.55 28.00 Q 66.75 15.71 88.13 12.46 C 95.82 11.30 100.75 10.58 107.96 11.56 Q 115.32 12.55 122.43 14.57 C 137.18 18.75 150.67 28.95 160.15 40.83 Q 173.98 58.16 181.47 79.30 Q 189.09 100.79 192.25 124.68 Q 193.22 132.02 192.07 136.79 Q 190.52 143.21 187.22 147.97 C 184.17 152.37 180.61 156.98 176.04 160.85 Q 161.59 173.10 143.28 178.03 Q 132.78 180.85 120.98 182.69 C 118.57 183.07 115.84 182.91 113.37 183.26 Q 106.04 184.29 96.93 183.83 Q 94.25 183.69 85.27 182.36 Q 51.50 177.37 27.04 153.45 Q 22.47 148.98 19.44 144.48 A 5.62 5.55 19.3 0 1 18.77 143.11 Q 16.22 135.22 16.01 132.18 Q 15.86 130.02 16.95 127.94 A 0.75 0.74 -62.8 0 0 16.63 126.93 Z M 90.41 103.81 A 0.67 0.67 0.0 0 1 89.50 103.83 C 86.59 101.23 81.54 95.08 76.60 91.40 C 55.93 76.01 40.22 112.01 34.83 125.65 C 32.89 130.56 31.50 133.72 35.12 137.66 Q 59.77 164.52 95.46 166.81 Q 105.84 167.48 118.54 166.14 C 140.35 163.83 163.14 155.86 174.97 136.05 A 5.03 4.99 68.4 0 0 175.49 134.84 Q 176.22 132.14 175.72 127.50 C 172.35 95.93 159.67 56.03 132.10 37.43 Q 121.24 30.11 109.96 28.64 C 82.66 25.10 58.03 37.41 41.71 59.01 Q 27.90 77.30 19.84 101.30 Q 18.95 103.94 19.03 105.29 C 19.39 111.55 26.96 114.55 31.40 110.06 Q 32.82 108.63 34.28 104.36 Q 39.63 88.73 48.65 74.67 C 61.15 55.19 79.07 42.40 102.85 42.89 C 120.09 43.24 133.37 55.33 141.89 69.14 C 152.95 87.05 159.00 108.11 161.15 129.07 A 3.33 3.31 60.1 0 1 160.55 131.32 C 153.06 141.76 139.53 147.33 127.02 149.81 C 111.75 152.83 93.52 153.54 78.85 148.92 Q 62.06 143.63 49.15 130.90 A 0.91 0.89 -57.2 0 1 48.95 129.94 C 52.60 120.73 57.67 110.04 64.89 103.23 A 1.95 1.94 34.9 0 1 67.00 102.86 Q 68.21 103.38 69.71 104.79 Q 70.09 105.16 79.59 114.71 C 84.26 119.41 91.55 121.63 97.22 117.46 Q 100.80 114.82 103.46 111.20 Q 111.17 100.69 118.20 85.81 C 120.22 81.55 121.65 79.39 119.76 75.57 C 117.28 70.58 111.11 70.41 107.43 74.52 A 3.33 3.23 78.8 0 0 106.88 75.37 Q 100.31 90.14 91.84 102.31 Q 91.57 102.69 90.41 103.81 Z"
/><path fill="#1d2d35" d=" M 90.41 103.81 Q 91.57 102.69 91.84 102.31 Q 100.31 90.14 106.88 75.37 A 3.33 3.23 78.8 0 1 107.43 74.52 C 111.11 70.41 117.28 70.58 119.76 75.57 C 121.65 79.39 120.22 81.55 118.20 85.81 Q 111.17 100.69 103.46 111.20 Q 100.80 114.82 97.22 117.46 C 91.55 121.63 84.26 119.41 79.59 114.71 Q 70.09 105.16 69.71 104.79 Q 68.21 103.38 67.00 102.86 A 1.95 1.94 34.9 0 0 64.89 103.23 C 57.67 110.04 52.60 120.73 48.95 129.94 A 0.91 0.89 -57.2 0 0 49.15 130.90 Q 62.06 143.63 78.85 148.92 C 93.52 153.54 111.75 152.83 127.02 149.81 C 139.53 147.33 153.06 141.76 160.55 131.32 A 3.33 3.31 60.1 0 0 161.15 129.07 C 159.00 108.11 152.95 87.05 141.89 69.14 C 133.37 55.33 120.09 43.24 102.85 42.89 C 79.07 42.40 61.15 55.19 48.65 74.67 Q 39.63 88.73 34.28 104.36 Q 32.82 108.63 31.40 110.06 C 26.96 114.55 19.39 111.55 19.03 105.29 Q 18.95 103.94 19.84 101.30 Q 27.90 77.30 41.71 59.01 C 58.03 37.41 82.66 25.10 109.96 28.64 Q 121.24 30.11 132.10 37.43 C 159.67 56.03 172.35 95.93 175.72 127.50 Q 176.22 132.14 175.49 134.84 A 5.03 4.99 68.4 0 1 174.97 136.05 C 163.14 155.86 140.35 163.83 118.54 166.14 Q 105.84 167.48 95.46 166.81 Q 59.77 164.52 35.12 137.66 C 31.50 133.72 32.89 130.56 34.83 125.65 C 40.22 112.01 55.93 76.01 76.60 91.40 C 81.54 95.08 86.59 101.23 89.50 103.83 A 0.67 0.67 0.0 0 0 90.41 103.81 Z"
/></svg>